<svg xmlns="http://www.w3.org/2000/svg" viewBox="0 0 160 120" width="160" height="120" role="img" aria-label="A barber chair and clippers">
  <!-- At the barber: shorter all over. -->
  <g fill="none" stroke="#2F4858" stroke-width="2.5" stroke-linecap="round" stroke-linejoin="round">
    <rect x="0" y="0" width="160" height="120" fill="#FBFAF7" stroke="none"/>
    <path d="M40 96 L40 62 C40 54 48 50 56 50 L92 50 C100 50 104 56 104 64 L104 96 Z" fill="#A9C6DC"/>
    <path d="M92 50 L104 30 C107 26 112 28 112 33 L112 46" fill="#C7DAE8"/>
    <line x1="52" y1="96" x2="52" y2="108"/><line x1="92" y1="96" x2="92" y2="108"/>
    <rect x="122" y="52" width="18" height="26" rx="3" fill="#D8A7A0"/>
    <g stroke="#2F4858" stroke-width="2"><line x1="124" y1="52" x2="124" y2="44"/><line x1="131" y1="52" x2="131" y2="44"/><line x1="138" y1="52" x2="138" y2="44"/></g>
    <line x1="14" y1="108" x2="146" y2="108"/>
  </g>
</svg>
