<svg xmlns="http://www.w3.org/2000/svg" viewBox="0 0 160 120" width="160" height="120" role="img" aria-label="A hand waving at a departing figure">
  <!-- Seeing someone off: they are leaving for work. -->
  <g fill="none" stroke="#2F4858" stroke-width="2.5" stroke-linecap="round" stroke-linejoin="round">
    <rect x="0" y="0" width="160" height="120" fill="#FBFAF7" stroke="none"/>
    <circle cx="46" cy="40" r="11" fill="#F2EBDD"/>
    <path d="M28 88 C28 62 64 62 64 88 Z" fill="#A9C6DC"/>
    <path d="M64 66 L64 40 C64 34 74 34 74 40 L74 56" fill="#E3D8C6"/>
    <path d="M74 48 C74 42 84 42 84 48 L84 66" fill="#E3D8C6"/>
    <circle cx="118" cy="44" r="9" fill="#F2EBDD"/>
    <path d="M104 88 C104 66 132 66 132 88 Z" fill="#B7C5AE"/>
    <rect x="128" y="72" width="16" height="14" rx="2" fill="#D8A7A0"/>
    <g stroke="#7FA5C0" stroke-width="2"><line x1="90" y1="30" x2="98" y2="26"/><line x1="92" y1="40" x2="100" y2="40"/></g>
    <line x1="12" y1="92" x2="148" y2="92"/>
  </g>
</svg>
